<svg width="46" height="46" viewBox="0 0 46 46" fill="none" xmlns="http://www.w3.org/2000/svg">
<g id="User/Person">
<g id="Icon">
<path fill-rule="evenodd" clip-rule="evenodd" d="M37.5283 32.0275L37.9883 34.2125C38.4242 36.1016 37.9938 38.0866 36.8147 39.6254C35.6355 41.1643 33.8307 42.0962 31.8933 42.1667H14.1066C12.1692 42.0962 10.3645 41.1643 9.18531 39.6254C8.00613 38.0866 7.57573 36.1016 8.01164 34.2125L8.47164 32.0275C9.00071 29.0697 11.5433 26.896 14.5475 26.8333H31.4525C34.4566 26.896 36.9992 29.0697 37.5283 32.0275ZM31.8933 39.2725C32.8666 39.2612 33.7825 38.8103 34.385 38.0458V38.065C35.1242 37.1377 35.4122 35.9294 35.1708 34.7683L34.7108 32.5833C34.4556 30.9641 33.0905 29.7516 31.4525 29.6892H14.5475C12.9094 29.7516 11.5444 30.9641 11.2892 32.5833L10.8292 34.7683C10.5937 35.9233 10.8814 37.1232 11.615 38.0458C12.2175 38.8103 13.1334 39.2612 14.1067 39.2725H31.8933Z" fill="black"/>
<path fill-rule="evenodd" clip-rule="evenodd" d="M23.9583 23H22.0416C17.8074 23 14.3749 19.5675 14.3749 15.3333V10.2733C14.3698 8.56376 15.0467 6.92275 16.2555 5.7139C17.4644 4.50506 19.1054 3.8282 20.8149 3.83331H25.1849C26.8945 3.8282 28.5355 4.50506 29.7444 5.7139C30.9532 6.92275 31.6301 8.56376 31.625 10.2733V15.3333C31.625 19.5675 28.1925 23 23.9583 23ZM20.8149 6.70831C18.8461 6.70831 17.2499 8.30442 17.2499 10.2733V15.3333C17.2499 17.9797 19.3953 20.125 22.0416 20.125H23.9583C26.6046 20.125 28.7499 17.9797 28.7499 15.3333V10.2733C28.7499 9.32781 28.3744 8.42104 27.7058 7.75248C27.0372 7.08391 26.1304 6.70831 25.1849 6.70831H20.8149Z" fill="black"/>
</g>
</g>
</svg>
