<svg width="46" height="47" viewBox="0 0 46 47" fill="none" xmlns="http://www.w3.org/2000/svg">
<g id="Comercial/Shopping-bag">
<g id="Icon">
<path fill-rule="evenodd" clip-rule="evenodd" d="M39.7516 13.7701L42.1666 29.7551C43.1441 36.7509 38.3333 43.1143 31.8166 43.1718H14.0683C7.66662 43.1718 2.79828 36.7509 3.83328 29.7551L6.24828 13.7701C6.82161 8.48465 11.1716 4.41164 16.4833 4.18677H29.5166C34.8283 4.41164 39.1783 8.48465 39.7516 13.7701ZM31.8741 40.2393C33.9321 40.2095 35.8732 39.2775 37.1833 37.6901C38.9403 35.6092 39.7031 32.8659 39.2724 30.1768L36.915 14.1918C36.5783 10.29 33.4265 7.22799 29.5166 7.00427H16.4833C12.5734 7.22799 9.42159 10.29 9.08495 14.1918L6.72745 30.1768C6.29679 32.8659 7.0596 35.6092 8.81662 37.6901C10.1267 39.2775 12.0678 40.2095 14.1258 40.2393H31.8741Z" fill="black"/>
<path d="M29.0375 14.1534C28.2435 14.1534 27.6 14.797 27.6 15.5909C27.6 18.1314 25.5405 20.1909 23 20.1909C20.4594 20.1909 18.4 18.1314 18.4 15.5909C18.4 14.797 17.7564 14.1534 16.9625 14.1534C16.1685 14.1534 15.525 14.797 15.525 15.5909C15.525 18.2615 16.9497 20.7292 19.2625 22.0645C21.5752 23.3998 24.4247 23.3998 26.7374 22.0645C29.0502 20.7292 30.475 18.2615 30.475 15.5909C30.4646 14.8013 29.827 14.1638 29.0375 14.1534Z" fill="black"/>
</g>
</g>
</svg>
